<svg xmlns="http://www.w3.org/2000/svg" viewBox="0 0 1824 2736.5"><defs><style>.cls-1{fill:#0c0c0c;}.cls-2{fill:#1b1a1b;}.cls-3{fill:#008700;}.cls-4{fill:none;stroke:#000;stroke-linecap:round;stroke-miterlimit:10;stroke-width:6px;}.cls-5,.cls-8{font-size:110px;fill:#f2f2f2;}.cls-12,.cls-18,.cls-5,.cls-8{font-family:MyriadPro-Regular, Myriad Pro;}.cls-5{letter-spacing:-0.03em;}.cls-6{letter-spacing:-0.02em;}.cls-7{letter-spacing:-0.03em;}.cls-8{letter-spacing:-0.02em;}.cls-9{letter-spacing:-0.02em;}.cls-10{letter-spacing:-0.03em;}.cls-11{letter-spacing:-0.02em;}.cls-12{font-size:90px;fill:#a0aab8;}.cls-13{letter-spacing:0em;}.cls-14{letter-spacing:-0.01em;}.cls-15{letter-spacing:0em;}.cls-16{letter-spacing:-0.01em;}.cls-17{letter-spacing:-0.01em;}.cls-18{font-size:212px;fill:#fff;letter-spacing:-0.02em;}.cls-19{letter-spacing:-0.02em;}.cls-20{fill:#b3b3b3;}</style></defs><title>Recurso 1</title><g id="Capa_2" data-name="Capa 2"><g id="Background"><rect class="cls-1" y="0.5" width="1824" height="2736"/></g><g id="Except_login" data-name="Except login"><rect class="cls-2" x="207.5" y="454.5" width="1409" height="1136.5" rx="15.63"/></g><g id="Navbar"><rect class="cls-3" width="1824" height="337"/></g><g id="data"><line class="cls-4" x1="264" y1="679" x2="1558" y2="679"/><line class="cls-4" x1="267" y1="882.5" x2="1561" y2="882.5"/><line class="cls-4" x1="264" y1="1481.5" x2="1558" y2="1481.5"/><line class="cls-4" x1="264" y1="1281.5" x2="1558" y2="1281.5"/><line class="cls-4" x1="264" y1="1078.5" x2="1558" y2="1078.5"/></g><g id="Login"><rect class="cls-3" x="589.5" y="2120.5" width="642" height="158" rx="22.03"/><text class="cls-5" transform="translate(783.88 2228.94)">L<tspan class="cls-6" x="48.07" y="0">o</tspan><tspan class="cls-7" x="106.15" y="0">g</tspan><tspan class="cls-6" x="164.67" y="0">in</tspan></text></g><g id="Register"><rect class="cls-3" x="589" y="1893" width="642" height="158" rx="22.03"/><text class="cls-8" transform="translate(726.23 2006.8)">R<tspan class="cls-9" x="57.31" y="0">e</tspan><tspan class="cls-7" x="110.11" y="0">g</tspan><tspan class="cls-6" x="168.63" y="0">is</tspan><tspan class="cls-10" x="233.31" y="0">t</tspan><tspan class="cls-11" x="266.75" y="0">er</tspan></text></g><g id="Enter..."><text class="cls-12" transform="translate(317.39 646.99)">E<tspan class="cls-13" x="44.28" y="0">n</tspan><tspan class="cls-14" x="93.87" y="0">t</tspan><tspan x="123.12" y="0">er name</tspan></text><text class="cls-12" transform="translate(317.67 850.89)">E<tspan class="cls-13" x="44.28" y="0">n</tspan><tspan class="cls-14" x="93.87" y="0">t</tspan><tspan x="123.12" y="0">er su</tspan><tspan class="cls-15" x="301.95" y="0">r</tspan><tspan x="331.73" y="0">name</tspan></text><text class="cls-12" transform="translate(317.82 1046.77)">E<tspan class="cls-13" x="44.28" y="0">n</tspan><tspan class="cls-14" x="93.87" y="0">t</tspan><tspan x="123.12" y="0">er pass</tspan><tspan class="cls-16" x="382.58" y="0">w</tspan><tspan x="447.92" y="0">o</tspan><tspan class="cls-17" x="497.33" y="0">r</tspan><tspan x="525.86" y="0">d</tspan></text><text class="cls-12" transform="translate(317.23 1246.8)">E<tspan class="cls-13" x="44.28" y="0">n</tspan><tspan class="cls-14" x="93.87" y="0">t</tspan><tspan x="123.12" y="0">er email</tspan></text><text class="cls-12" transform="translate(316.76 1445.02)">E<tspan class="cls-13" x="44.28" y="0">n</tspan><tspan class="cls-14" x="93.87" y="0">t</tspan><tspan x="123.12" y="0">er phone</tspan></text></g><g id="APP_NAME_LOGO" data-name="APP NAME/LOGO"><text class="cls-18" transform="translate(447.35 243.16)">APP N<tspan class="cls-19" x="517.49" y="0">A</tspan><tspan x="641.93" y="0">ME</tspan></text></g><g id="Back_arrow" data-name="Back arrow"><path class="cls-20" d="M163,160H302a16,16,0,1,1,0,32l-139,1,32,28c7,10.12.32,18.31-3,21a20.1,20.1,0,0,1-24,1l-64-54c-4-3-7.81-6.86-8-12-.2-5.48,4-10,8-13l66-56a17.78,17.78,0,0,1,25,24Z"/></g></g></svg>