<svg xmlns="http://www.w3.org/2000/svg" viewBox="0 0 268.94 266.56"><defs><style>.cls-1{fill:#f5f5f5;}</style></defs><title>Logo3</title><g id="Capa_2" data-name="Capa 2"><path class="cls-1" d="M171.77,215.87c-.55,1.56-2.17,6.13,0,9.19s7.34,3.52,9.19,3.07c4.39-1.09,11.23-4.34,19.26-8.29l-6.78-22.6C181.63,204.28,173.28,211.6,171.77,215.87Z" transform="translate(-102.36 -105.92)"/><path class="cls-1" d="M268,202.77c10.85,7.87,15.87,40.41,2.55,60.59a56.87,56.87,0,0,1-19.64,18.52l6.4,20.08a74.29,74.29,0,0,0,30.1-27.87c14.53-24.18,18.95-62.29-.77-82.73-16.48-17.08-43.15-14.9-66.67-6.59l7.15,22.45C243.27,200.52,259.17,196.34,268,202.77Z" transform="translate(-102.36 -105.92)"/><path class="cls-1" d="M197.81,288.64C167.69,284,133,261.22,125.81,222c-7.31-39.91,18.15-76.53,44.42-88.09,17.3-7.6,37.32-9.85,55.15-2.29,12.87,5.45,15.88-.81,17.9-4.32,2.39-4.18,1.25-10-12.54-15.6-24.34-9.92-52.41-6-71.23,3.83C125.68,133.29,94,178.41,104.36,229.66c9.11,45,47.54,79.57,92.68,83.49a124.48,124.48,0,0,0,30.72-1.54q-3.22-10.73-6.44-21.44A99.76,99.76,0,0,1,197.81,288.64Z" transform="translate(-102.36 -105.92)"/><path class="cls-1" d="M211.6,158.43c-2.53-10.47-12.4-15.8-19.15-13.79-7.22,2.14-12.75,13.22-7.66,23.74q4.32,14.43,8.65,28.86A150.41,150.41,0,0,1,220,184.77Q215.79,171.6,211.6,158.43Z" transform="translate(-102.36 -105.92)"/><path class="cls-1" d="M364.79,284l-46-154.72a13.77,13.77,0,0,0-24.51,12.25Q316.15,215.49,338,289.4c.27,2.19,10.42,25.17-3.24,38.64s-41.22,14.17-44.93,13.62c-18.6-2.77-26.87-24.65-28.43-27L257.33,302a102.47,102.47,0,0,1-29.57,9.65L233,329.23c3.36,4.43,8.46,33.74,41.41,41.37,33.42,7.73,89.31-8.6,96.36-43.58C373.15,315.4,366.38,290.63,364.79,284Z" transform="translate(-102.36 -105.92)"/><path class="cls-1" d="M227.14,207.22c-9.33,3.88-18.74,8.61-26.92,12.62q10.56,35.16,21.1,70.33c9.14-.56,19.72-2.69,29.61-8.29Z" transform="translate(-102.36 -105.92)"/></g></svg>